<?xml version="1.0" encoding="UTF-8" standalone="no"?>
<svg width="317.5mm" height="295.01mm" 
    xmlns="http://www.w3.org/2000/svg" 
    xmlns:xlink="http://www.w3.org/1999/xlink" version="1.2" baseProfile="tiny">
    <defs></defs>
    <g fill="none" stroke="black" stroke-width="1" fill-rule="evenodd" stroke-linecap="square" stroke-linejoin="bevel">
        <g fill="#000000" fill-opacity="1" stroke="#000000" stroke-opacity="1" stroke-width="1" stroke-linecap="square" stroke-linejoin="miter" stroke-miterlimit="2" transform="matrix(1,0,0,1,0,0)"></g>
        <g fill="#000000" fill-opacity="1" stroke="#000000" stroke-opacity="1" stroke-width="1" stroke-linecap="square" stroke-linejoin="miter" stroke-miterlimit="2" transform="matrix(1,0,0,1,0,0)"></g>
        <g fill="#000000" fill-opacity="1" stroke="#000000" stroke-opacity="1" stroke-width="1" stroke-linecap="square" stroke-linejoin="miter" stroke-miterlimit="2" transform="matrix(1,0,0,1,0,0)"></g>
        <g fill="#000000" fill-opacity="1" stroke="#000000" stroke-opacity="1" stroke-width="1" stroke-linecap="square" stroke-linejoin="miter" stroke-miterlimit="2" transform="matrix(1,0,0,1,0,0)"></g>
        <g fill="#000000" fill-opacity="1" stroke="#000000" stroke-opacity="1" stroke-width="1" stroke-linecap="square" stroke-linejoin="miter" stroke-miterlimit="2" transform="matrix(1,0,0,1,576,557.5)"></g>
        <g fill="#000000" fill-opacity="1" stroke="#000000" stroke-opacity="1" stroke-width="1" stroke-linecap="square" stroke-linejoin="miter" stroke-miterlimit="2" transform="matrix(4.65245,0,0,4.65245,-881.12,-1290.6)"></g>
        <g fill="#179bd7" fill-opacity="1" stroke="none" transform="matrix(4.65245,0,0,4.65245,-881.12,-1290.6)">
            <path vector-effect="none" fill-rule="evenodd" d="M258.982,363.849 C260.281,360.849 260.482,357.949 259.382,355.749 C256.781,350.349 247.581,350.649 238.781,356.149 C235.281,358.349 232.281,361.049 230.081,363.949 C229.962,364.308 229.687,364.557 229.481,364.849 C226.581,368.949 225.281,373.149 226.481,376.449 C228.581,382.449 237.881,382.749 247.381,376.849 C252.381,373.649 256.281,369.549 258.381,365.449 C257.783,365.997 258.855,364.16 258.981,363.849 L258.982,363.849"/>
        </g>
        <g fill="#000000" fill-opacity="1" stroke="#000000" stroke-opacity="1" stroke-width="1" stroke-linecap="square" stroke-linejoin="miter" stroke-miterlimit="2" transform="matrix(4.65245,0,0,4.65245,-881.12,-1290.6)"></g>
        <g fill="#179bd7" fill-opacity="1" stroke="none" transform="matrix(4.65245,0,0,4.65245,-881.12,-1290.6)">
            <path vector-effect="none" fill-rule="evenodd" d="M291.3,349.3 C300.8,343.4 305.4,334.3 301.8,329.3 C298.3,324.5 288.5,325.1 279.7,330.6 C270.9,336.1 266,344.7 268.8,349.9 C271.7,355.4 281.9,355.2 291.3,349.3 "/>
        </g>
        <g fill="#000000" fill-opacity="1" stroke="#000000" stroke-opacity="1" stroke-width="1" stroke-linecap="square" stroke-linejoin="miter" stroke-miterlimit="2" transform="matrix(4.65245,0,0,4.65245,-881.12,-1290.6)"></g>
        <g fill="#179bd7" fill-opacity="1" stroke="none" transform="matrix(4.65245,0,0,4.65245,-881.12,-1290.6)">
            <path vector-effect="none" fill-rule="evenodd" d="M335.3,321.7 C344.8,315.8 348.6,307.2 344.2,302.7 C339.9,298.4 329.4,299.5 320.6,305 C311.8,310.5 307.5,318.7 311.2,323.4 C315,328.3 325.9,327.7 335.3,321.7 "/>
        </g>
        <g fill="#000000" fill-opacity="1" stroke="#000000" stroke-opacity="1" stroke-width="1" stroke-linecap="square" stroke-linejoin="miter" stroke-miterlimit="2" transform="matrix(4.65245,0,0,4.65245,-881.12,-1290.6)"></g>
        <g fill="#179bd7" fill-opacity="1" stroke="none" transform="matrix(4.65245,0,0,4.65245,-881.12,-1290.6)">
            <path vector-effect="none" fill-rule="evenodd" d="M273.2,384 C270,377.5 259.7,377.3 250,383.3 C240.3,389.3 234.4,399.7 236.8,406.7 C239.3,414 249.9,414.9 260.4,408.4 C270.8,401.9 276.5,390.8 273.2,384 "/>
        </g>
        <g fill="#000000" fill-opacity="1" stroke="#000000" stroke-opacity="1" stroke-width="1" stroke-linecap="square" stroke-linejoin="miter" stroke-miterlimit="2" transform="matrix(4.65245,0,0,4.65245,-881.12,-1290.6)"></g>
        <g fill="#179bd7" fill-opacity="1" stroke="none" transform="matrix(4.65245,0,0,4.65245,-881.12,-1290.6)">
            <path vector-effect="none" fill-rule="evenodd" d="M320.845,363.831 C321.845,360.431 321.645,357.231 319.845,354.731 C315.645,348.831 304.545,349.131 294.845,355.231 C290.945,357.631 287.745,360.731 285.645,363.931 C284.456,366.14 285.605,363.841 284.445,366.131 C282.245,370.231 281.745,374.431 283.545,377.631 C287.145,384.331 298.645,384.631 309.145,378.131 C314.145,374.931 317.845,370.931 319.845,366.831 C320.801,363.855 319.887,366.862 320.845,363.831 L320.845,363.831"/>
        </g>
        <g fill="#000000" fill-opacity="1" stroke="#000000" stroke-opacity="1" stroke-width="1" stroke-linecap="square" stroke-linejoin="miter" stroke-miterlimit="2" transform="matrix(4.65245,0,0,4.65245,-881.12,-1290.6)"></g>
        <g fill="#179bd7" fill-opacity="1" stroke="none" transform="matrix(4.65245,0,0,4.65245,-881.12,-1290.6)">
            <path vector-effect="none" fill-rule="evenodd" d="M330.4,348.2 C335,354.2 347.4,354 357.9,347.4 C368.4,340.8 372.2,330.9 366.8,325.4 C361.6,320.1 349.7,321 340,327 C330.3,333.1 325.9,342.4 330.4,348.2 "/>
        </g>
        <g fill="#000000" fill-opacity="1" stroke="#000000" stroke-opacity="1" stroke-width="1" stroke-linecap="square" stroke-linejoin="miter" stroke-miterlimit="2" transform="matrix(4.65245,0,0,4.65245,-881.12,-1290.6)"></g>
        <g fill="#179bd7" fill-opacity="1" stroke="none" transform="matrix(4.65245,0,0,4.65245,-881.12,-1290.6)">
            <path vector-effect="none" fill-rule="evenodd" d="M264.1,417.4 C253.3,424.1 246.9,436.4 249.9,445.2 C253.1,454.4 265.3,456.3 277.1,448.9 C288.9,441.5 294.9,428.3 290.7,419.7 C286.6,411.6 274.8,410.7 264.1,417.4 "/>
        </g>
        <g fill="#000000" fill-opacity="1" stroke="#000000" stroke-opacity="1" stroke-width="1" stroke-linecap="square" stroke-linejoin="miter" stroke-miterlimit="2" transform="matrix(4.65245,0,0,4.65245,-881.12,-1290.6)"></g>
        <g fill="#179bd7" fill-opacity="1" stroke="none" transform="matrix(4.65245,0,0,4.65245,-881.12,-1290.6)">
            <path vector-effect="none" fill-rule="evenodd" d="M314.2,386.1 C303.4,392.8 298,404.5 302.3,412.5 C306.8,420.9 320.1,422 331.9,414.7 C343.7,407.3 348.5,394.8 343,387 C337.7,379.6 324.9,379.3 314.2,386.1 "/>
        </g>
        <g fill="#000000" fill-opacity="1" stroke="#000000" stroke-opacity="1" stroke-width="1" stroke-linecap="square" stroke-linejoin="miter" stroke-miterlimit="2" transform="matrix(4.65245,0,0,4.65245,-881.12,-1290.6)"></g>
        <g fill="#000000" fill-opacity="1" stroke="#000000" stroke-opacity="1" stroke-width="1" stroke-linecap="square" stroke-linejoin="miter" stroke-miterlimit="2" transform="matrix(4.65245,0,0,4.65245,-881.12,-1290.6)"></g>
        <g fill="#000000" fill-opacity="1" stroke="#000000" stroke-opacity="1" stroke-width="1" stroke-linecap="square" stroke-linejoin="miter" stroke-miterlimit="2" transform="matrix(4.65245,0,0,4.65245,-881.12,-1290.6)"></g>
        <g fill="#179bd7" fill-opacity="1" stroke="none" transform="matrix(4.65245,0,0,4.65245,-881.12,-1290.6)">
            <path vector-effect="none" fill-rule="evenodd" d="M189.388,364.554 C380.988,368.354 189.388,364.554 380.988,368.354 L381.089,364.154 C189.389,364.554 381.089,364.154 189.389,364.554 L189.388,364.554"/>
        </g>
        <g fill="#000000" fill-opacity="1" stroke="#000000" stroke-opacity="1" stroke-width="1" stroke-linecap="square" stroke-linejoin="miter" stroke-miterlimit="2" transform="matrix(4.65245,0,0,4.65245,-881.12,-1290.6)"></g>
        <g fill="#6e6e73" fill-opacity="1" stroke="none" transform="matrix(4.65245,0,0,4.65245,-881.12,-1290.6)">
            <path vector-effect="none" fill-rule="evenodd" d="M421.3,354.2 C428.2,361.1 424.4,372.9 412.7,380.3 C400.9,387.7 386.4,387.2 380.6,379.7 C375.1,372.5 379.5,361.5 390.2,354.7 C401,348 414.7,347.6 421.3,354.2 "/>
        </g>
        <g fill="#000000" fill-opacity="1" stroke="#000000" stroke-opacity="1" stroke-width="1" stroke-linecap="square" stroke-linejoin="miter" stroke-miterlimit="2" transform="matrix(4.65245,0,0,4.65245,-881.12,-1290.6)"></g>
        <g fill="#000000" fill-opacity="1" stroke="#000000" stroke-opacity="1" stroke-width="1" stroke-linecap="square" stroke-linejoin="miter" stroke-miterlimit="2" transform="matrix(4.65245,0,0,4.65245,-881.12,-1290.6)"></g>
        <g fill="#6e6e73" fill-opacity="1" stroke="none" transform="matrix(4.65245,0,0,4.65245,-881.12,-1290.6)">
            <path vector-effect="none" fill-rule="nonzero" d="M224.2,476.3 C224.3,475 224.3,473.6 224.4,472.2 C224.1,472.2 223.9,472.3 223.6,472.3 C223.3,472.3 223.1,472.3 222.8,472.3 C222.5,472.3 222.3,472.3 222,472.3 C221.7,472.3 221.5,472.2 221.2,472.2 C221.3,473.6 221.3,475 221.4,476.3 C221.5,477.6 221.5,479 221.5,480.4 L221.5,481.5 C220.4,481.5 219.2,481.5 218.2,481.6 C217.1,481.6 216,481.6 214.9,481.6 C213.8,481.6 212.6,481.6 211.6,481.6 C210.5,481.6 209.4,481.6 208.3,481.5 L208.3,480.4 C208.3,479 208.3,477.6 208.4,476.3 C208.5,475 208.5,473.6 208.6,472.2 C208.3,472.2 208.1,472.3 207.8,472.3 C207.5,472.3 207.3,472.3 207,472.3 C206.7,472.3 206.5,472.3 206.2,472.3 C205.9,472.3 205.7,472.2 205.4,472.2 C205.5,473.6 205.5,475 205.6,476.3 C205.7,477.6 205.7,479 205.7,480.4 L205.7,485.9 C205.7,487.3 205.7,488.7 205.6,490 C205.5,491.4 205.5,492.7 205.4,494 C205.9,494 206.4,493.9 207,493.9 C207.6,493.9 208.1,493.9 208.6,494 C208.5,492.7 208.5,491.3 208.4,490 C208.3,488.6 208.3,487.3 208.3,485.9 L208.3,483 C209.4,483 210.6,483 211.6,483 C212.7,483 213.8,483 214.9,483 C216,483 217.2,483 218.2,483 C219.3,483 220.4,483 221.5,483 L221.5,485.9 C221.5,487.3 221.5,488.7 221.4,490 C221.3,491.4 221.3,492.7 221.2,494 C221.7,494 222.2,493.9 222.8,493.9 C223.4,493.9 223.9,493.9 224.4,494 C224.3,492.7 224.3,491.3 224.2,490 C224.1,488.6 224.1,487.3 224.1,485.9 L224.1,480.4 C224.1,479 224.1,477.7 224.2,476.3 M242.7,473.8 C242.3,473.4 241.8,473.1 241.3,472.9 C240.8,472.7 240.3,472.5 239.8,472.4 C239.3,472.3 238.8,472.2 238.3,472.2 C237.8,472.2 237.4,472.2 237.1,472.2 C236.9,472.2 236.6,472.2 236.2,472.2 C235.9,472.2 235.5,472.2 235.1,472.2 C234.7,472.2 234.4,472.2 234,472.2 C233.6,472.2 233.3,472.2 233.1,472.2 C232.6,472.2 232.1,472.2 231.6,472.2 C231.1,472.2 230.6,472.1 230.1,472.1 C230.2,473.5 230.2,474.9 230.3,476.2 C230.4,477.5 230.4,478.9 230.4,480.3 L230.4,485.8 C230.4,487.2 230.4,488.6 230.3,489.9 C230.2,491.3 230.2,492.6 230.1,493.9 C230.6,493.9 231.1,493.8 231.7,493.8 C232.3,493.8 232.8,493.8 233.3,493.9 C233.2,492.6 233.2,491.2 233.1,489.9 C233,488.5 233,487.2 233,485.8 L233,484 C233.4,484 233.8,484.1 234.2,484.1 C234.6,484.1 235,484.1 235.5,484.1 C236.3,484.1 237.1,484 238.1,483.8 C239.1,483.6 240,483.3 240.9,482.8 C241.8,482.3 242.5,481.6 243.1,480.8 C243.7,479.9 244,478.8 244,477.4 C244,476.5 243.9,475.8 243.6,475.2 C243.5,474.7 243.1,474.2 242.7,473.8 M240.6,480.4 C240.2,481.1 239.7,481.6 239.2,482 C238.6,482.4 238,482.7 237.3,482.8 C236.6,482.9 235.9,483 235.3,483 C234.5,483 233.8,482.9 233,482.7 L233,473.2 L235.9,473.2 C236.7,473.2 237.5,473.3 238.1,473.4 C238.8,473.5 239.3,473.7 239.8,474.1 C240.3,474.4 240.6,474.9 240.9,475.4 C241.2,476 241.3,476.7 241.3,477.6 C241.2,478.8 241,479.7 240.6,480.4 M251.9,475.4 C252.7,474.6 253.6,473.9 254.7,473.5 C255.8,473.1 256.9,472.9 258.2,472.9 C259,472.9 259.7,473 260.3,473.2 C260.9,473.4 261.5,473.7 262,473.9 C262.5,474.2 263,474.5 263.3,474.8 C263.7,475.1 264,475.4 264.2,475.7 L264.4,475.6 C264.5,475.3 264.5,474.8 264.7,474.3 C264.8,473.8 264.9,473.4 265.1,473.1 C264.2,472.7 263.2,472.4 262,472.1 C260.8,471.8 259.6,471.7 258.2,471.7 C256.4,471.7 254.8,472 253.4,472.5 C251.9,473 250.7,473.8 249.6,474.7 C248.5,475.7 247.7,476.9 247.1,478.3 C246.5,479.7 246.2,481.3 246.2,483.1 C246.2,484.9 246.5,486.5 247.1,487.9 C247.7,489.3 248.5,490.5 249.5,491.5 C250.5,492.5 251.8,493.2 253.2,493.7 C254.6,494.2 256.2,494.4 257.9,494.4 C258.7,494.4 259.4,494.3 260.2,494.2 C260.9,494.1 261.6,493.9 262.2,493.8 C262.8,493.6 263.3,493.5 263.7,493.3 C264.1,493.1 264.4,492.9 264.6,492.7 L264.9,490.8 L264.8,490.7 C264.5,490.9 264.1,491.2 263.7,491.5 C263.3,491.8 262.8,492.1 262.2,492.4 C261.7,492.7 261.1,492.9 260.4,493.1 C259.8,493.3 259,493.4 258.3,493.4 C257,493.4 255.9,493.2 254.8,492.8 C253.7,492.4 252.8,491.8 252,490.9 C251.2,490.1 250.6,489 250.1,487.7 C249.7,486.4 249.4,484.9 249.4,483.1 C249.4,481.3 249.6,479.8 250.1,478.5 C250.5,477.3 251.1,476.3 251.9,475.4 M273.2,475.4 C274,474.6 274.9,473.9 276,473.5 C277.1,473.1 278.2,472.9 279.5,472.9 C280.3,472.9 281,473 281.6,473.2 C282.2,473.4 282.8,473.7 283.3,473.9 C283.8,474.2 284.3,474.5 284.6,474.8 C285,475.1 285.3,475.4 285.5,475.7 L285.7,475.6 C285.8,475.3 285.8,474.8 286,474.3 C286.1,473.8 286.2,473.4 286.4,473.1 C285.5,472.7 284.5,472.4 283.3,472.1 C282.1,471.8 280.9,471.7 279.5,471.7 C277.7,471.7 276.1,472 274.7,472.5 C273.2,473 272,473.8 270.9,474.7 C269.8,475.7 269,476.9 268.4,478.3 C267.8,479.7 267.5,481.3 267.5,483.1 C267.5,484.9 267.8,486.5 268.4,487.9 C269,489.3 269.8,490.5 270.8,491.5 C271.8,492.5 273.1,493.2 274.5,493.7 C275.9,494.2 277.5,494.4 279.2,494.4 C280,494.4 280.7,494.3 281.5,494.2 C282.2,494.1 282.9,493.9 283.5,493.8 C284.1,493.6 284.6,493.5 285,493.3 C285.4,493.1 285.7,492.9 285.9,492.7 L286.2,490.8 L286.1,490.7 C285.8,490.9 285.4,491.2 285,491.5 C284.6,491.8 284.1,492.1 283.5,492.4 C283,492.7 282.4,492.9 281.7,493.1 C281.1,493.3 280.3,493.4 279.6,493.4 C278.3,493.4 277.2,493.2 276.1,492.8 C275,492.4 274.1,491.8 273.3,490.9 C272.5,490.1 271.9,489 271.4,487.7 C271,486.4 270.7,484.9 270.7,483.1 C270.7,481.3 270.9,479.8 271.4,478.5 C271.8,477.3 272.4,476.3 273.2,475.4 M308.2,482.9 C307.5,482.5 306.7,482.1 305.8,481.8 C304.9,481.5 304.1,481.1 303.4,480.7 C302.7,480.3 302,479.8 301.5,479.2 C301,478.6 300.8,477.8 300.8,476.8 C300.8,476.2 300.9,475.7 301.1,475.2 C301.3,474.7 301.6,474.3 302,473.9 C302.4,473.5 302.8,473.3 303.3,473.1 C303.8,472.9 304.3,472.8 304.9,472.8 C305.5,472.8 306,472.9 306.4,473.1 C306.8,473.3 307.2,473.6 307.5,473.8 C307.8,474.1 308.1,474.4 308.2,474.8 C308.4,475.2 308.5,475.5 308.6,475.8 L309,475.8 C309.1,475.2 309.3,474.7 309.4,474.3 C309.5,473.9 309.7,473.5 309.9,473.2 C309.3,472.7 308.6,472.3 307.8,472.1 C307.1,471.9 306.2,471.7 305.2,471.7 C304.1,471.7 303.2,471.8 302.3,472.1 C301.4,472.4 300.7,472.8 300.1,473.3 C299.5,473.8 299,474.5 298.7,475.2 C298.4,475.9 298.2,476.7 298.2,477.6 C298.2,478.9 298.4,479.9 298.9,480.6 C299.4,481.3 300,482 300.8,482.4 C301.5,482.9 302.3,483.3 303.2,483.6 C304.1,483.9 304.9,484.3 305.6,484.7 C306.3,485.1 307,485.6 307.5,486.1 C308,486.7 308.2,487.4 308.2,488.4 C308.2,489 308.1,489.6 307.9,490.2 C307.7,490.8 307.4,491.3 307,491.7 C306.6,492.1 306.1,492.4 305.6,492.7 C305,492.9 304.4,493.1 303.7,493.1 C303,493.1 302.4,493 301.9,492.8 C301.3,492.6 300.9,492.3 300.4,492 C300,491.7 299.6,491.3 299.3,490.9 C299,490.5 298.8,490.1 298.6,489.7 L298.2,489.7 C298.1,490.3 298.1,490.8 298,491.2 C297.9,491.6 297.8,492 297.6,492.5 C298.2,492.9 298.8,493.3 299.7,493.7 C300.5,494.1 301.6,494.2 302.9,494.2 C304.1,494.2 305.2,494 306.2,493.7 C307.2,493.3 308,492.9 308.7,492.2 C309.4,491.6 309.9,490.8 310.2,489.9 C310.6,489 310.7,488.1 310.7,487.1 C310.7,485.9 310.5,485 310,484.3 C309.6,483.9 309,483.3 308.2,482.9 M328.6,472.2 C328.2,473.1 327.7,474.1 327.2,475 C326.7,476 326.2,476.9 325.7,477.9 C325.2,478.9 324.6,479.8 324.1,480.7 C323.6,481.6 323.1,482.5 322.6,483.2 C321.5,481.3 320.4,479.4 319.5,477.6 C318.5,475.8 317.5,474 316.6,472.1 C316.3,472.1 316,472.2 315.7,472.2 C315.4,472.2 315.1,472.2 314.8,472.2 C314.5,472.2 314.2,472.2 313.9,472.2 C313.6,472.2 313.3,472.1 313,472.1 C313.2,472.4 313.5,472.9 313.9,473.6 C314.3,474.3 314.8,475 315.3,475.9 C315.8,476.7 316.3,477.6 316.9,478.5 C317.5,479.4 318,480.3 318.5,481.1 C319,481.9 319.5,482.7 319.9,483.4 C320.3,484.1 320.6,484.6 320.8,485 C320.8,486.7 320.8,488.4 320.8,489.9 C320.8,491.5 320.7,492.8 320.6,493.9 C321.1,493.9 321.6,493.8 322.2,493.8 C322.8,493.8 323.3,493.8 323.8,493.9 C323.8,493.5 323.7,492.9 323.7,492.1 C323.7,491.4 323.6,490.6 323.6,489.7 C323.6,488.8 323.6,488 323.6,487.1 C323.6,486.2 323.6,485.4 323.6,484.6 C323.9,483.9 324.3,483.2 324.8,482.4 C325.3,481.6 325.8,480.7 326.4,479.6 C327,478.6 327.7,477.4 328.5,476.2 C329.3,474.9 330.2,473.5 331.2,472 C330.7,472.1 330.3,472.2 330,472.2 C329.5,472.3 329.1,472.3 328.6,472.2 M343.6,482.9 C342.9,482.5 342.1,482.1 341.2,481.8 C340.3,481.5 339.5,481.1 338.8,480.7 C338.1,480.3 337.4,479.8 336.9,479.2 C336.4,478.6 336.2,477.8 336.2,476.8 C336.2,476.2 336.3,475.7 336.5,475.2 C336.7,474.7 337,474.3 337.4,473.9 C337.8,473.5 338.2,473.3 338.7,473.1 C339.2,472.9 339.7,472.8 340.3,472.8 C340.9,472.8 341.4,472.9 341.8,473.1 C342.2,473.3 342.6,473.6 342.9,473.8 C343.2,474.1 343.5,474.4 343.6,474.8 C343.8,475.2 343.9,475.5 344,475.8 L344.4,475.8 C344.5,475.2 344.7,474.7 344.8,474.3 C344.9,473.9 345.1,473.5 345.3,473.2 C344.7,472.7 344,472.3 343.2,472.1 C342.5,471.9 341.6,471.7 340.6,471.7 C339.5,471.7 338.6,471.8 337.7,472.1 C336.8,472.4 336.1,472.8 335.5,473.3 C334.9,473.8 334.4,474.5 334.1,475.2 C333.8,475.9 333.6,476.7 333.6,477.6 C333.6,478.9 333.8,479.9 334.3,480.6 C334.8,481.3 335.4,482 336.2,482.4 C336.9,482.9 337.7,483.3 338.6,483.6 C339.5,483.9 340.3,484.3 341,484.7 C341.7,485.1 342.4,485.6 342.9,486.1 C343.4,486.7 343.6,487.4 343.6,488.4 C343.6,489 343.5,489.6 343.3,490.2 C343.1,490.8 342.8,491.3 342.4,491.7 C342,492.1 341.5,492.4 341,492.7 C340.4,492.9 339.8,493.1 339.1,493.1 C338.4,493.1 337.8,493 337.3,492.8 C336.7,492.6 336.3,492.3 335.8,492 C335.4,491.7 335,491.3 334.7,490.9 C334.4,490.5 334.2,490.1 334,489.7 L333.6,489.7 C333.5,490.3 333.5,490.8 333.4,491.2 C333.3,491.6 333.2,492 333,492.5 C333.6,492.9 334.2,493.3 335.1,493.7 C335.9,494.1 337,494.2 338.3,494.2 C339.5,494.2 340.6,494 341.6,493.7 C342.6,493.3 343.4,492.9 344.1,492.2 C344.8,491.6 345.3,490.8 345.6,489.9 C346,489 346.1,488.1 346.1,487.1 C346.1,485.9 345.9,485 345.4,484.3 C345,483.9 344.4,483.3 343.6,482.9 M360.7,472.3 C359.4,472.3 358,472.3 356.6,472.3 C355.2,472.3 353.8,472.3 352.5,472.3 C351.2,472.3 349.8,472.2 348.4,472.2 C348.5,472.6 348.6,473 348.6,473.2 C348.6,473.5 348.5,473.8 348.4,474.2 C348.8,474.1 349.4,474.1 349.9,474 C350.5,474 351,473.9 351.7,473.9 C352.3,473.9 352.9,473.8 353.5,473.8 C354.1,473.8 354.7,473.8 355.2,473.8 C355.3,476 355.3,478.2 355.3,480.4 L355.3,485.9 C355.3,487.3 355.3,488.7 355.2,490 C355.1,491.4 355.1,492.7 355,494 C355.5,494 356,493.9 356.6,493.9 C357.2,493.9 357.7,493.9 358.2,494 C358.1,492.7 358.1,491.3 358,490 C357.9,488.6 357.9,487.3 357.9,485.9 L357.9,480.4 C357.9,478.2 357.9,476 358,473.8 C358.6,473.8 359.1,473.8 359.7,473.8 C360.3,473.8 360.9,473.8 361.5,473.9 C362.1,473.9 362.7,474 363.3,474 C363.9,474 364.4,474.1 364.8,474.2 C364.7,473.8 364.6,473.5 364.6,473.2 C364.6,472.9 364.7,472.6 364.8,472.2 C363.4,472.2 362,472.3 360.7,472.3 M379.8,492.3 C379.3,492.4 378.7,492.5 378,492.5 C377.3,492.6 376.6,492.6 375.8,492.6 C375,492.6 374.2,492.6 373.4,492.6 L371.2,492.6 C371.2,492.2 371.2,491.6 371.2,490.8 C371.2,490 371.2,489 371.2,487.8 L371.2,484.6 C371.2,484.3 371.2,484 371.2,483.8 C371.2,483.6 371.2,483.4 371.2,483.2 C371.6,483.2 372.1,483.2 372.7,483.2 C373.3,483.2 374,483.2 374.8,483.2 C375.5,483.2 376.3,483.2 377,483.3 C377.7,483.3 378.4,483.4 378.9,483.5 C378.8,483.2 378.8,482.9 378.8,482.5 C378.8,482.2 378.8,481.8 378.9,481.5 C378.4,481.5 377.9,481.6 377.4,481.6 C376.9,481.6 376.3,481.7 375.7,481.7 C375.1,481.7 374.4,481.8 373.7,481.8 C373,481.8 372.1,481.8 371.2,481.8 C371.2,481.4 371.2,480.8 371.2,480 C371.2,479.2 371.2,478.4 371.2,477.6 C371.2,476.8 371.2,476.1 371.2,475.5 C371.2,474.9 371.3,474.2 371.3,473.6 C372.3,473.6 373.2,473.6 374,473.6 C374.7,473.6 375.4,473.7 376.1,473.7 C376.7,473.7 377.3,473.8 377.9,473.8 C378.5,473.8 379.1,473.9 379.8,473.9 C379.7,473.6 379.7,473.3 379.7,472.9 C379.7,472.6 379.7,472.3 379.8,471.9 C378.8,471.9 377.9,472 377,472 C376.1,472 375.1,472 374.2,472 C373.2,472 372.3,472 371.3,472 C370.4,472 369.4,471.9 368.4,471.9 C368.5,473.3 368.5,474.6 368.6,476 C368.7,477.4 368.7,478.7 368.7,480.1 L368.7,485.6 C368.7,487 368.7,488.4 368.6,489.7 C368.5,491.1 368.5,492.4 368.4,493.8 C369.4,493.8 370.3,493.7 371.3,493.7 L377.1,493.7 C378,493.7 379,493.7 380,493.8 C379.9,493.6 379.9,493.3 379.9,493 C379.9,492.9 379.9,492.7 379.9,492.5 C379.7,492.6 379.8,492.4 379.8,492.3 M406.8,483.3 C406.6,481.5 406.4,479.6 406.2,477.7 C406,475.8 405.8,473.8 405.5,471.8 L405.1,471.8 C404.6,472.8 404,473.8 403.4,475 C402.8,476.1 402.2,477.3 401.5,478.4 C400.9,479.6 400.3,480.7 399.7,481.9 C399.1,483 398.5,484.1 398,485.1 C397.5,486.1 397,486.9 396.6,487.7 C396.2,488.5 395.9,489 395.7,489.4 C394.1,486.4 392.5,483.5 391,480.6 C389.5,477.8 388,474.8 386.6,471.8 L386,471.8 C385.8,473.5 385.6,475.3 385.4,477.2 C385.2,479.1 384.9,481 384.6,482.9 C384.3,484.8 384,486.8 383.7,488.7 C383.4,490.6 383.1,492.4 382.8,494.2 C383.1,494.2 383.5,494.1 383.9,494.1 C384.3,494.1 384.7,494.1 385,494.2 C385,493.3 385.1,492.3 385.2,490.9 C385.3,489.6 385.4,488.2 385.6,486.7 C385.7,485.2 385.9,483.7 386.1,482.1 C386.3,480.6 386.4,479.1 386.6,477.8 L386.7,477.8 C388.1,480.6 389.5,483.4 390.9,486 C392.3,488.7 393.6,491.4 394.9,494 L395.2,494 C396.5,491.1 397.8,488.3 399.2,485.7 C400.6,483.1 402.1,480.4 403.5,477.7 L403.6,477.7 C403.9,480.5 404.2,483.2 404.5,485.8 C404.7,488.5 405,491.2 405.2,494 C405.5,494 405.7,493.9 405.9,493.9 L407.4,493.9 C407.6,493.9 407.9,493.9 408.1,494 C407.8,492.2 407.6,490.5 407.4,488.7 C407.2,486.9 407,485.1 406.8,483.3 M423.4,484.6 C422.9,483.9 422.3,483.3 421.5,482.9 C420.8,482.5 420,482.1 419.1,481.8 C418.2,481.5 417.4,481.1 416.7,480.7 C416,480.3 415.3,479.8 414.8,479.2 C414.3,478.6 414.1,477.8 414.1,476.8 C414.1,476.2 414.2,475.7 414.4,475.2 C414.6,474.7 414.9,474.3 415.3,473.9 C415.7,473.5 416.1,473.3 416.6,473.1 C417.1,472.9 417.6,472.8 418.2,472.8 C418.8,472.8 419.3,472.9 419.7,473.1 C420.1,473.3 420.5,473.6 420.8,473.8 C421.1,474.1 421.4,474.4 421.5,474.8 C421.7,475.2 421.8,475.5 421.9,475.8 L422.3,475.8 C422.4,475.2 422.6,474.7 422.7,474.3 C422.8,473.9 423,473.5 423.2,473.2 C422.6,472.7 421.9,472.3 421.1,472.1 C420.4,471.9 419.5,471.7 418.5,471.7 C417.4,471.7 416.5,471.8 415.6,472.1 C414.7,472.4 414,472.8 413.4,473.3 C412.8,473.8 412.3,474.5 412,475.2 C411.7,475.9 411.5,476.7 411.5,477.6 C411.5,478.9 411.7,479.9 412.2,480.6 C412.7,481.3 413.3,482 414.1,482.4 C414.8,482.9 415.6,483.3 416.5,483.6 C417.4,483.9 418.2,484.3 418.9,484.7 C419.6,485.1 420.3,485.6 420.8,486.1 C421.3,486.7 421.5,487.4 421.5,488.4 C421.5,489 421.4,489.6 421.2,490.2 C421,490.8 420.7,491.3 420.3,491.7 C419.9,492.1 419.4,492.4 418.9,492.7 C418.3,492.9 417.7,493.1 417,493.1 C416.3,493.1 415.7,493 415.2,492.8 C414.6,492.6 414.2,492.3 413.7,492 C413.3,491.7 412.9,491.3 412.6,490.9 C412.3,490.5 412.1,490.1 411.9,489.7 L411.5,489.7 C411.4,490.3 411.4,490.8 411.3,491.2 C411.2,491.6 411.1,492 410.9,492.5 C411.5,492.9 412.1,493.3 413,493.7 C413.8,494.1 414.9,494.2 416.2,494.2 C417.4,494.2 418.5,494 419.5,493.7 C420.5,493.3 421.3,492.9 422,492.2 C422.7,491.6 423.2,490.8 423.5,489.9 C423.9,489 424,488.1 424,487.1 C424.2,486.3 423.9,485.3 423.4,484.6 "/>
        </g>
        <g fill="#000000" fill-opacity="1" stroke="#000000" stroke-opacity="1" stroke-width="1" stroke-linecap="square" stroke-linejoin="miter" stroke-miterlimit="2" transform="matrix(4.65245,0,0,4.65245,-881.12,-1290.6)"></g>
        <g fill="#6e6e73" fill-opacity="1" stroke="none" transform="matrix(4.65245,0,0,4.65245,-881.12,-1290.6)">
            <path vector-effect="none" fill-rule="nonzero" d="M433.1,472.1 C435.3,472.1 437,473.9 437,476 C437,478.2 435.2,479.9 433.1,479.9 C430.9,479.9 429.2,478.1 429.2,476 C429.2,473.8 430.9,472.1 433.1,472.1 M433.1,479.5 C435,479.5 436.6,477.9 436.6,476 C436.6,474.1 435.1,472.5 433.1,472.5 C431.1,472.5 429.6,474.1 429.6,476 C429.6,477.9 431.2,479.5 433.1,479.5 M431.7,475 C431.7,474.5 431.7,473.9 431.6,473.5 C431.9,473.5 432.2,473.6 432.5,473.6 C432.8,473.6 433.1,473.5 433.4,473.5 C434.2,473.5 434.8,473.9 434.8,474.6 C434.8,475.5 433.8,475.9 433.3,476 C433.9,476.7 434.8,478 435.2,478.4 L435.2,478.5 C435.1,478.5 434.9,478.4 434.8,478.4 C434.7,478.4 434.5,478.4 434.4,478.5 C433.9,477.7 433.3,476.9 432.6,476.1 L432.2,476.1 L432.2,476.9 C432.2,477.4 432.2,478 432.3,478.5 C432.2,478.5 432.1,478.4 431.9,478.4 C431.8,478.4 431.7,478.4 431.5,478.5 C431.5,478 431.6,477.5 431.6,477 L431.6,475 L431.7,475 M432.2,475.7 C432.3,475.7 432.5,475.7 432.7,475.7 C433.4,475.7 434.1,475.4 434.1,474.6 C434.1,474 433.7,473.7 433.1,473.7 C432.8,473.7 432.6,473.7 432.3,473.8 C432.3,474.1 432.2,474.5 432.2,474.8 L432.2,475.7"/>
        </g>
        <g fill="#000000" fill-opacity="1" stroke="#000000" stroke-opacity="1" stroke-width="1" stroke-linecap="square" stroke-linejoin="miter" stroke-miterlimit="2" transform="matrix(4.65245,0,0,4.65245,-881.12,-1290.6)"></g>
        <g fill="#6e6e73" fill-opacity="1" stroke="none" transform="matrix(4.65245,0,0,4.65245,-881.12,-1290.6)">
            <path vector-effect="none" fill-rule="nonzero" d="M376.1,322.1 C376.1,321.5 376.1,320.9 376.1,320.2 C375.5,320.2 374.7,320.2 374.2,320.3 C374.2,320.2 374.2,320.1 374.2,320 C374.2,319.9 374.2,319.8 374.2,319.7 C375,319.7 375.7,319.7 376.5,319.7 C377.3,319.7 378,319.7 378.8,319.7 C378.8,319.8 378.8,319.9 378.8,320 C378.8,320.1 378.8,320.2 378.8,320.3 C378.3,320.2 377.5,320.2 376.9,320.2 C376.9,320.8 376.9,321.4 376.9,322.1 L376.9,323.6 C376.9,324.4 376.9,325.2 377,325.9 C376.8,325.9 376.7,325.9 376.6,325.9 C376.5,325.9 376.3,325.9 376.2,325.9 C376.2,325.1 376.3,324.3 376.3,323.6 L376.3,322.1 L376.1,322.1 M380.5,319.7 C381.3,321.4 382.2,323 383.1,324.7 C383.5,324 384.9,321.4 385.8,319.7 L385.9,319.7 C386.2,322 386.4,324 386.6,326 C386.5,326 386.3,326 386.2,326 C386.1,326 385.9,326 385.8,326 C385.7,324.4 385.5,322.9 385.4,321.4 C384.6,322.9 383.8,324.4 383,326 L382.9,326 C382.2,324.5 381.4,323 380.6,321.4 C380.4,322.9 380.2,325 380.2,326 C380.1,326 380,326 379.9,326 C379.8,326 379.7,326 379.6,326 C379.9,324 380.3,321.6 380.5,319.7 L380.5,319.7"/>
        </g>
        <g fill="#000000" fill-opacity="1" stroke="#000000" stroke-opacity="1" stroke-width="1" stroke-linecap="square" stroke-linejoin="miter" stroke-miterlimit="2" transform="matrix(4.65245,0,0,4.65245,-881.12,-1290.6)"></g>
        <g fill="#000000" fill-opacity="1" stroke="#000000" stroke-opacity="1" stroke-width="1" stroke-linecap="square" stroke-linejoin="miter" stroke-miterlimit="2" transform="matrix(4.65245,0,0,4.65245,-881.12,-1290.6)"></g>
        <g fill="#000000" fill-opacity="1" stroke="#000000" stroke-opacity="1" stroke-width="1" stroke-linecap="square" stroke-linejoin="miter" stroke-miterlimit="2" transform="matrix(1,0,0,1,576,557.5)"></g>
        <g fill="#000000" fill-opacity="1" stroke="#000000" stroke-opacity="1" stroke-width="1" stroke-linecap="square" stroke-linejoin="miter" stroke-miterlimit="2" transform="matrix(1,0,0,1,0,0)"></g>
        <g fill="#000000" fill-opacity="1" stroke="#000000" stroke-opacity="1" stroke-width="1" stroke-linecap="square" stroke-linejoin="miter" stroke-miterlimit="2" transform="matrix(1,0,0,1,0,0)"></g>
        <g fill="#000000" fill-opacity="1" stroke="#000000" stroke-opacity="1" stroke-width="1" stroke-linecap="square" stroke-linejoin="miter" stroke-miterlimit="2" transform="matrix(1,0,0,1,0,0)"></g>
        <g fill="#000000" fill-opacity="1" stroke="#000000" stroke-opacity="1" stroke-width="1" stroke-linecap="square" stroke-linejoin="miter" stroke-miterlimit="2" transform="matrix(1,0,0,1,0,0)"></g>
        <g fill="#000000" fill-opacity="1" stroke="#000000" stroke-opacity="1" stroke-width="1" stroke-linecap="square" stroke-linejoin="miter" stroke-miterlimit="2" transform="matrix(1,0,0,1,0,0)"></g>
        <g fill="#000000" fill-opacity="1" stroke="#000000" stroke-opacity="1" stroke-width="1" stroke-linecap="square" stroke-linejoin="miter" stroke-miterlimit="2" transform="matrix(1,0,0,1,0,0)"></g>
        <g fill="#000000" fill-opacity="1" stroke="#000000" stroke-opacity="1" stroke-width="1" stroke-linecap="square" stroke-linejoin="miter" stroke-miterlimit="2" transform="matrix(1,0,0,1,576,557.5)"></g>
        <g fill="#000000" fill-opacity="1" stroke="#000000" stroke-opacity="1" stroke-width="1" stroke-linecap="square" stroke-linejoin="miter" stroke-miterlimit="2" transform="matrix(4.65245,0,0,4.65245,-881.12,-1290.6)"></g>
        <g fill="#000000" fill-opacity="1" stroke="#000000" stroke-opacity="1" stroke-width="1" stroke-linecap="square" stroke-linejoin="miter" stroke-miterlimit="2" transform="matrix(4.65245,0,0,4.65245,-881.12,-1290.6)"></g>
        <g fill="#000000" fill-opacity="1" stroke="#000000" stroke-opacity="1" stroke-width="1" stroke-linecap="square" stroke-linejoin="miter" stroke-miterlimit="2" transform="matrix(4.65245,0,0,4.65245,-881.12,-1290.6)"></g>
        <g fill="#000000" fill-opacity="1" stroke="#000000" stroke-opacity="1" stroke-width="1" stroke-linecap="square" stroke-linejoin="miter" stroke-miterlimit="2" transform="matrix(4.65245,0,0,4.65245,-881.12,-1290.6)"></g>
        <g fill="#000000" fill-opacity="1" stroke="#000000" stroke-opacity="1" stroke-width="1" stroke-linecap="square" stroke-linejoin="miter" stroke-miterlimit="2" transform="matrix(4.65245,0,0,4.65245,-881.12,-1290.6)"></g>
        <g fill="#000000" fill-opacity="1" stroke="#000000" stroke-opacity="1" stroke-width="1" stroke-linecap="square" stroke-linejoin="miter" stroke-miterlimit="2" transform="matrix(1,0,0,1,576,557.5)"></g>
        <g fill="#000000" fill-opacity="1" stroke="#000000" stroke-opacity="1" stroke-width="1" stroke-linecap="square" stroke-linejoin="miter" stroke-miterlimit="2" transform="matrix(1,0,0,1,0,0)"></g>
        <g fill="#000000" fill-opacity="1" stroke="#000000" stroke-opacity="1" stroke-width="1" stroke-linecap="square" stroke-linejoin="miter" stroke-miterlimit="2" transform="matrix(1,0,0,1,0,0)"></g>
        <g fill="#000000" fill-opacity="1" stroke="#000000" stroke-opacity="1" stroke-width="1" stroke-linecap="square" stroke-linejoin="miter" stroke-miterlimit="2" transform="matrix(1,0,0,1,0,0)"></g>
        <g fill="#000000" fill-opacity="1" stroke="#000000" stroke-opacity="1" stroke-width="1" stroke-linecap="square" stroke-linejoin="miter" stroke-miterlimit="2" transform="matrix(1,0,0,1,0,0)"></g>
        <g fill="#000000" fill-opacity="1" stroke="#000000" stroke-opacity="1" stroke-width="1" stroke-linecap="square" stroke-linejoin="miter" stroke-miterlimit="2" transform="matrix(1,0,0,1,0,0)"></g>
        <g fill="#000000" fill-opacity="1" stroke="#000000" stroke-opacity="1" stroke-width="1" stroke-linecap="square" stroke-linejoin="miter" stroke-miterlimit="2" transform="matrix(1,0,0,1,0,0)"></g>
        <g fill="#000000" fill-opacity="1" stroke="#000000" stroke-opacity="1" stroke-width="1" stroke-linecap="square" stroke-linejoin="miter" stroke-miterlimit="2" transform="matrix(1,0,0,1,0,0)"></g>
        <g fill="#000000" fill-opacity="1" stroke="#000000" stroke-opacity="1" stroke-width="1" stroke-linecap="square" stroke-linejoin="miter" stroke-miterlimit="2" transform="matrix(1,0,0,1,0,0)"></g>
    </g>
</svg>